<svg xmlns="http://www.w3.org/2000/svg" viewBox="0 0 120 120"><defs><linearGradient id="b" x1="0" y1="0" x2="1" y2="1"><stop stop-color="#e7f7ff"/><stop offset="1" stop-color="#b7dcef"/></linearGradient></defs><ellipse cx="60" cy="104" rx="35" ry="8" fill="#536d79" opacity=".13"/><path d="M30 91c-14 0-23-9-23-21s9-21 22-21c3-17 16-29 32-29 18 0 31 12 34 29 12 1 21 10 21 22 0 12-10 20-24 20Z" fill="url(#b)" stroke="#668494" stroke-width="5" stroke-linejoin="round"/><circle cx="49" cy="66" r="4" fill="#42515a"/><circle cx="73" cy="66" r="4" fill="#42515a"/><path d="M55 76q6 5 12 0" fill="none" stroke="#668494" stroke-width="3" stroke-linecap="round"/><circle cx="40" cy="76" r="6" fill="#ffb3ca" opacity=".45"/><circle cx="82" cy="76" r="6" fill="#ffb3ca" opacity=".45"/></svg>